<svg id="Layer_1" data-name="Layer 1" xmlns="http://www.w3.org/2000/svg" viewBox="0 0 1078 243.02"><defs><style>.cls-1{fill:#fff;}</style></defs><path class="cls-1" d="M519.19,493.94a39.51,39.51,0,0,1-9.22,6.42A42.94,42.94,0,0,1,499.46,504a51.73,51.73,0,0,1-10.61,1.15,41.62,41.62,0,0,1-17.93-3.84,44.42,44.42,0,0,1-14-10.15,45,45,0,0,1-9-14.67,48.51,48.51,0,0,1-3.18-17.36A50.22,50.22,0,0,1,447.47,443a44.55,44.55,0,0,1,8.17-14.57,41.62,41.62,0,0,1,13.58-10.45,43.05,43.05,0,0,1,19.21-4,53.57,53.57,0,0,1,10.4,1A44.35,44.35,0,0,1,509,418.31a36.5,36.5,0,0,1,9.13,6.24,35.08,35.08,0,0,1,7.22,9.68l22.48-14q-7.43-13.22-22.6-21.47t-36-8.24q-17.61,0-31.4,5.94A73.79,73.79,0,0,0,434.52,412,66.32,66.32,0,0,0,420,433.75a63.2,63.2,0,0,0,.43,50.22,72.9,72.9,0,0,0,15.06,22.43,76.19,76.19,0,0,0,23,16A69.85,69.85,0,0,0,488,528.55a86.93,86.93,0,0,0,18.68-2.11,82.76,82.76,0,0,0,17.93-6.13,66.58,66.58,0,0,0,15.06-9.88A41.27,41.27,0,0,0,550,496.92l-24-12.46a29.6,29.6,0,0,1-6.8,9.48" transform="translate(-415 -390.33)"/><path class="cls-1" d="M717.82,412.19a74.08,74.08,0,0,0-23-15.83,72.15,72.15,0,0,0-29.81-6A76.1,76.1,0,0,0,635.49,396,74.34,74.34,0,0,0,612,411.22a71.6,71.6,0,0,0-15.49,22,62.68,62.68,0,0,0-5.62,26.07,64.4,64.4,0,0,0,5.31,25.49,69.51,69.51,0,0,0,15,22.15,73.64,73.64,0,0,0,23.13,15.53,74.62,74.62,0,0,0,30,5.85,76,76,0,0,0,29.49-5.66,73.74,73.74,0,0,0,23.34-15.15,69.94,69.94,0,0,0,15.28-21.85,63,63,0,0,0,5.52-26,64.18,64.18,0,0,0-5.3-25.31,72,72,0,0,0-14.86-22.23m-12.2,63.73a45.08,45.08,0,0,1-8.49,14.67A42.17,42.17,0,0,1,683.34,501a46.83,46.83,0,0,1-37.35.09A42,42,0,0,1,632.2,491a44.15,44.15,0,0,1-8.6-14.58,49.91,49.91,0,0,1-.1-33.64,45,45,0,0,1,8.37-14.57,41.09,41.09,0,0,1,13.8-10.35,47.13,47.13,0,0,1,37.24-.19,40.82,40.82,0,0,1,13.79,10.06,46,46,0,0,1,8.71,14.56,48.53,48.53,0,0,1,3.08,17.07,49.57,49.57,0,0,1-2.87,16.58" transform="translate(-415 -390.33)"/><path class="cls-1" d="M1308,493.94a39.41,39.41,0,0,1-9.24,6.42,42.72,42.72,0,0,1-10.5,3.65,51.73,51.73,0,0,1-10.61,1.15,41.65,41.65,0,0,1-17.93-3.84,44.53,44.53,0,0,1-14-10.15,45.12,45.12,0,0,1-9-14.67,48.3,48.3,0,0,1-3.19-17.36,50.22,50.22,0,0,1,2.76-16.19,44.55,44.55,0,0,1,8.17-14.57A41.62,41.62,0,0,1,1258,417.93a43,43,0,0,1,19.2-4,53.59,53.59,0,0,1,10.41,1,44.51,44.51,0,0,1,10.18,3.35,36.32,36.32,0,0,1,9.13,6.24,34.86,34.86,0,0,1,7.21,9.68l22.5-14q-7.44-13.22-22.6-21.47t-36-8.24q-17.62,0-31.41,5.94A73.63,73.63,0,0,0,1223.29,412a66,66,0,0,0-14.54,21.76,63.2,63.2,0,0,0,.43,50.22,73.07,73.07,0,0,0,15.06,22.43,76.19,76.19,0,0,0,23,16,69.85,69.85,0,0,0,29.49,6.14,86.93,86.93,0,0,0,18.68-2.11,83,83,0,0,0,17.94-6.13,66.8,66.8,0,0,0,15.06-9.88,41.24,41.24,0,0,0,10.29-13.51l-24-12.46a29.73,29.73,0,0,1-6.79,9.48" transform="translate(-415 -390.33)"/><rect class="cls-1" x="704.55" y="2.47" width="29.28" height="133.31"/><polygon class="cls-1" points="975.29 3.98 975.24 27.19 1078 27.19 1078 3.98 975.29 3.98"/><polygon class="cls-1" points="975.24 124.51 1078 124.51 1078 101.31 975.29 101.31 975.24 124.51"/><polygon class="cls-1" points="975.24 75.24 1078 75.24 1078 52.05 975.29 52.05 975.24 75.24"/><path class="cls-1" d="M1203.57,575c0-1.68,1.18-4.55-2-4.65s-2.1,2.82-2.11,4.48c-.11,14.42,0,28.83-.1,43.25,0,1.71.59,3.58-1.14,5.66-1.31-1.6-2.55-3-3.71-4.54q-18.15-23.18-36.29-46.37c-1.08-1.39-2.1-3.14-4.31-2.61-2.71.66-1.51,2.95-1.52,4.47-.1,13.7-.07,27.4-.07,41.09,0,4.69,0,9.36,0,14.05,0,1.57.19,2.91,2.28,2.83,1.87-.08,1.77-1.45,1.81-2.69.06-1.44,0-2.89,0-4.33V579.27c2.63.79,3.31,2.37,4.27,3.59Q1179,606,1197.15,629.19c1.27,1.6,2.27,4.27,4.92,3.37,2.8-.95,1.47-3.74,1.48-5.66q.18-25.93,0-51.89" transform="translate(-415 -390.33)"/><path class="cls-1" d="M805.4,571c-5.72-1.34-11.49-.6-16.34-.89-4.85,0-8.81-.1-12.77.06-1.55.06-4.18-1.08-4.18,1.82s2.52,2,4.15,2c7.75.09,15.51-.16,23.25.11,15.68.57,26.54,12.07,26.39,27.66s-10.92,26.52-26.45,27c-6.3.2-12.63-.14-18.92.13-3.74.17-4.64-1.43-4.57-4.76.14-6.49,0-13,0-19.46,0-1.38.2-3-2.05-3s-2,1.66-2,3.06c0,8.11.07,16.22-.06,24.33,0,2.84,1,3.77,3.8,3.72,8.29-.15,16.6.22,24.86-.22,15.55-.81,28.14-12.51,29.32-26.74,1.51-18-7.57-30.87-24.4-34.83" transform="translate(-415 -390.33)"/><path class="cls-1" d="M1113.06,604.79c0-1.54-.09-3-2.23-2.83-1.83.12-1.76,1.48-1.77,2.74,0,4.86-.24,9.74,0,14.59.2,3.34-1,5.43-3.93,6.8-10.16,4.73-20.27,4.81-30-1-13.46-8-17.24-25.85-8.64-39.25,8.23-12.82,27.44-16.4,40.78-7.7,1.28.84,2.78,4,4.65.91,1.59-2.6-1.44-3.19-2.74-4.09-11.57-8-30.43-6.75-40.83,2.55a32.57,32.57,0,0,0-7,39c7.08,13.19,23.26,19.72,38.59,15.54,11.45-3.11,13.06-5.22,13-17V614c0-3.06,0-6.12,0-9.19" transform="translate(-415 -390.33)"/><path class="cls-1" d="M971,602.32c-6.15-2-12.49-3.4-18.53-5.64-6.33-2.37-8.55-6.06-8.07-11.87s4.41-8.87,9.52-10.42c7.38-2.24,14.55-1.09,21.56,1.88,1.33.56,3.14,3.2,4.46.47s-1.74-3.18-3.23-3.92c-6.18-3-12.82-3.32-19.52-2.76-9,.75-15.84,6.17-16.84,13.32-1.27,9.16,2.35,14.42,12.61,17.76,6,1.94,12.13,3.3,18.07,5.32,5.16,1.76,8.61,5.16,8.27,11.2-.3,5.18-3.89,9.41-9.69,10.85a32.62,32.62,0,0,1-26.85-4.4c-1-.64-1.84-2.88-3.4-.77s.4,2.89,1.63,3.78a31.76,31.76,0,0,0,20.34,6c2.16-.13,4.32-.14,6.46-.4,8.42-1,14.94-7,15.6-14,.78-8.29-2.92-13.27-12.39-16.31" transform="translate(-415 -390.33)"/><path class="cls-1" d="M1022.48,601.81c0-9.35,0-18.69,0-28,0-1.45.57-3.53-2.05-3.5s-2,2.09-2,3.56q-.06,27.51,0,55c0,1.44-.73,3.57,1.79,3.76,3.05.22,2.25-2.25,2.27-3.81.09-9,0-18,0-27" transform="translate(-415 -390.33)"/><path class="cls-1" d="M901.72,570.17c-5.19-.12-10.39,0-15.59,0-5.55,0-11.11-.07-16.66,0-1.39,0-3.59-.85-3.73,1.73s2,2.11,3.47,2.11q16.39.06,32.79,0c1.53,0,3.6.35,3.47-2.14s-2.36-1.69-3.75-1.71" transform="translate(-415 -390.33)"/><path class="cls-1" d="M902.66,628.85H868.77c-1.42,0-3.07-.14-3.06,2s1.78,1.86,3.1,1.87c5.57,0,11.13,0,16.68,0,5.74,0,11.48,0,17.21,0,1.18,0,2.71.26,2.82-1.62.11-2-1.31-2.26-2.86-2.26" transform="translate(-415 -390.33)"/><path class="cls-1" d="M902.42,599.34q-16.74-.06-33.47,0c-1.27,0-3.32-.49-3.1,1.81.21,2.07,2.17,1.47,3.47,1.49,5.4.09,10.8,0,16.2,0,5.58,0,11.15,0,16.73,0,1.33,0,3.26.37,3.13-1.87-.1-1.79-1.79-1.44-3-1.44" transform="translate(-415 -390.33)"/><path class="cls-1" d="M891.19,467.78a45.84,45.84,0,0,0,9.55-14.48,43.26,43.26,0,0,0,3.4-16.77,40.12,40.12,0,0,0-3.62-16.39,48,48,0,0,0-10-14.57,49.59,49.59,0,0,0-15.17-10.36,46.55,46.55,0,0,0-19.21-3.93H792.31v23.23l.07,0v0h61.89a20.7,20.7,0,0,1,7.53,1.43,17.76,17.76,0,0,1,6.47,4.31,22.27,22.27,0,0,1,4.46,7,24.31,24.31,0,0,1,1.7,9.3q0,10.16-5.42,16.1a17.46,17.46,0,0,1-13.47,5.95H793.38v.05h-1.07V527.4h29.28V481.77h35.65a47,47,0,0,0,34-14" transform="translate(-415 -390.33)"/><path class="cls-1" d="M1067.74,435.62a40.41,40.41,0,0,0-3.6-16.39,48.42,48.42,0,0,0-10-14.57A49.46,49.46,0,0,0,1039,394.3a46.55,46.55,0,0,0-19.19-3.93H955.91v23.22l.07,0v-.05h61.89a20.72,20.72,0,0,1,7.54,1.44,17.72,17.72,0,0,1,6.47,4.31,22.31,22.31,0,0,1,4.45,7,24.05,24.05,0,0,1,1.71,9.3c0,6.77-1.82,12.14-5.42,16.1a17.5,17.5,0,0,1-13.48,5.95H957v0h-1.08v68.78h29.28V480.86h35.65a47.06,47.06,0,0,0,34-14,45.81,45.81,0,0,0,9.54-14.48,43.08,43.08,0,0,0,3.4-16.77" transform="translate(-415 -390.33)"/></svg>